<?xml version="1.0" encoding="UTF-8" standalone="no"?>
<!-- Created with Inkscape (http://www.inkscape.org/) -->

<svg
   xmlns:dc="http://purl.org/dc/elements/1.1/"
   xmlns:cc="http://creativecommons.org/ns#"
   xmlns:rdf="http://www.w3.org/1999/02/22-rdf-syntax-ns#"
   xmlns:svg="http://www.w3.org/2000/svg"
   xmlns="http://www.w3.org/2000/svg"
   xmlns:sodipodi="http://sodipodi.sourceforge.net/DTD/sodipodi-0.dtd"
   xmlns:inkscape="http://www.inkscape.org/namespaces/inkscape"
   width="189px"
   height="69px"
   id="svg20361"
   version="1.1"
   inkscape:version="0.48.3.1 r9886"
   sodipodi:docname="logo.svg">
  <defs
     id="defs20363" />
  <sodipodi:namedview
     id="base"
     pagecolor="#ffffff"
     bordercolor="#666666"
     borderopacity="1.0"
     inkscape:pageopacity="0.0"
     inkscape:pageshadow="2"
     inkscape:zoom="1.4"
     inkscape:cx="375"
     inkscape:cy="153.44066"
     inkscape:document-units="px"
     inkscape:current-layer="layer1"
     showgrid="false"
     inkscape:window-width="1301"
     inkscape:window-height="744"
     inkscape:window-x="65"
     inkscape:window-y="24"
     inkscape:window-maximized="1" />
  <metadata
     id="metadata20366">
    <rdf:RDF>
      <cc:Work
         rdf:about="">
        <dc:format>image/svg+xml</dc:format>
        <dc:type
           rdf:resource="http://purl.org/dc/dcmitype/StillImage" />
        <dc:title />
      </cc:Work>
    </rdf:RDF>
  </metadata>
  <g
     inkscape:label="Calque 1"
     inkscape:groupmode="layer"
     id="layer1">
    <rect
       style="fill:#a02c2f;fill-opacity:0.94117647;stroke:none"
       id="rect4247-5"
       width="29.727272"
       height="29.727272"
       x="818.46936"
       y="-69.576538"
       ry="7.1868134"
       transform="matrix(0.40852836,0.91274563,-0.91274563,0.40852836,0,0)"
       inkscape:export-filename="/opt/lampp/htdocs/perso/images/logo.png"
       inkscape:export-xdpi="153.16606"
       inkscape:export-ydpi="153.16606" />
    <text
       xml:space="preserve"
       style="font-size:38.41678238px;font-style:normal;font-variant:normal;font-weight:bold;font-stretch:normal;text-align:center;line-height:58.99999738%;letter-spacing:0px;word-spacing:0px;text-anchor:middle;fill:#ffffff;fill-opacity:1;stroke:none;font-family:Ume P Gothic;-inkscape-font-specification:Sans"
       x="834.47638"
       y="-40.611507"
       id="text4757-8"
       sodipodi:linespacing="58.999997%"
       transform="matrix(0.40852836,0.91274563,-0.91274563,0.40852836,0,0)"
       inkscape:export-filename="/opt/lampp/htdocs/perso/images/logo.png"
       inkscape:export-xdpi="153.16606"
       inkscape:export-ydpi="153.16606"><tspan
         sodipodi:role="line"
         id="tspan4759-8"
         x="834.47638"
         y="-40.611507">&gt;</tspan></text>
    <rect
       style="fill:#ffffff;fill-opacity:1;stroke:none"
       id="rect4247-0"
       width="29.727272"
       height="29.727272"
       x="262.43451"
       y="791.07751"
       ry="7.1868134"
       transform="matrix(0.98451082,-0.17532384,0.17532384,0.98451082,0,0)"
       inkscape:export-filename="/opt/lampp/htdocs/perso/images/logo.png"
       inkscape:export-xdpi="153.16606"
       inkscape:export-ydpi="153.16606" />
    <text
       xml:space="preserve"
       style="font-size:38.41678238px;font-style:normal;font-variant:normal;font-weight:bold;font-stretch:normal;text-align:center;line-height:58.99999738%;letter-spacing:0px;word-spacing:0px;text-anchor:middle;fill:#140b06;fill-opacity:1;stroke:none;font-family:Ume P Gothic;-inkscape-font-specification:Sans"
       x="278.4415"
       y="820.04254"
       id="text4757-3"
       sodipodi:linespacing="58.999997%"
       transform="matrix(0.98451082,-0.17532384,0.17532384,0.98451082,0,0)"
       inkscape:export-filename="/opt/lampp/htdocs/perso/images/logo.png"
       inkscape:export-xdpi="153.16606"
       inkscape:export-ydpi="153.16606"><tspan
         sodipodi:role="line"
         id="tspan4759-5"
         x="278.4415"
         y="820.04254">&gt;</tspan></text>
    <text
       xml:space="preserve"
       style="font-size:17.57884979px;font-style:normal;font-variant:normal;font-weight:bold;font-stretch:normal;text-align:start;line-height:100%;letter-spacing:0px;word-spacing:0px;text-anchor:start;fill:#ffffff;fill-opacity:1;stroke:none;font-family:Ume P Gothic;-inkscape-font-specification:Sans"
       x="431.9122"
       y="744.84076"
       id="text4811"
       sodipodi:linespacing="100%"
       inkscape:export-filename="/opt/lampp/htdocs/perso/images/logo.png"
       inkscape:export-xdpi="153.16606"
       inkscape:export-ydpi="153.16606"><tspan
         sodipodi:role="line"
         id="tspan4813"
         x="431.9122"
         y="744.84076">Déclics</tspan><tspan
         sodipodi:role="line"
         x="431.9122"
         y="756.48346"
         id="tspan4815"
         style="font-size:10.67132854px;font-style:italic;fill:#ffffff;-inkscape-font-specification:Ume P Gothic Bold Italic">Webdesign</tspan></text>
    <rect
       style="fill:#a02c2f;fill-opacity:0.94117647;stroke:none"
       id="rect4247-5-1"
       width="42.346394"
       height="42.346394"
       x="22.458969"
       y="-41.424736"
       ry="10.23759"
       transform="matrix(0.40852836,0.91274563,-0.91274563,0.40852836,0,0)"
       inkscape:export-filename="/opt/lampp/htdocs/perso/images/logo.png"
       inkscape:export-xdpi="153.16606"
       inkscape:export-ydpi="153.16606" />
    <g
       transform="matrix(0.40852836,0.91274563,-0.91274563,0.40852836,0,0)"
       style="font-size:54.72457123px;font-style:normal;font-variant:normal;font-weight:bold;font-stretch:normal;text-align:center;line-height:58.99999738%;letter-spacing:0px;word-spacing:0px;text-anchor:middle;fill:#ffffff;fill-opacity:1;stroke:none;font-family:Ume P Gothic;-inkscape-font-specification:Sans"
       id="text4757-8-8">
      <path
         d="m 33.931179,-32.015567 2.778982,-3.420286 19.452875,14.108678 0,3.206518 L 36.710161,-4.4395139 33.931179,-7.6460317 51.460144,-19.617032 33.931179,-32.015567"
         style=""
         id="path3024" />
    </g>
    <rect
       style="fill:#ffffff;fill-opacity:1;stroke:none"
       id="rect4247-0-8"
       width="42.346394"
       height="42.346394"
       x="40.953503"
       y="31.446966"
       ry="10.23759"
       transform="matrix(0.98451082,-0.17532384,0.17532384,0.98451082,0,0)"
       inkscape:export-filename="/opt/lampp/htdocs/perso/images/logo.png"
       inkscape:export-xdpi="153.16606"
       inkscape:export-ydpi="153.16606" />
    <g
       transform="matrix(0.98451082,-0.17532384,0.17532384,0.98451082,0,0)"
       style="font-size:54.72457123px;font-style:normal;font-variant:normal;font-weight:bold;font-stretch:normal;text-align:center;line-height:58.99999738%;letter-spacing:0px;word-spacing:0px;text-anchor:middle;fill:#140b06;fill-opacity:1;stroke:none;font-family:Ume P Gothic;-inkscape-font-specification:Sans"
       id="text4757-3-9">
      <path
         d="m 52.425713,40.856132 2.778982,-3.420286 19.452875,14.108679 0,3.206517 -19.452875,13.681143 -2.778982,-3.206518 17.528964,-11.971 -17.528964,-12.398535"
         style=""
         id="path3027" />
    </g>
    <g
       style="font-size:25.0410099px;font-style:normal;font-variant:normal;font-weight:bold;font-stretch:normal;text-align:start;line-height:100%;letter-spacing:0px;word-spacing:0px;text-anchor:start;fill:#ffffff;fill-opacity:1;stroke:none;font-family:Ume P Gothic;-inkscape-font-specification:Sans"
       id="text4811-9">
      <path
         d="m 97.429527,21.936429 4.303923,0 c 2.67364,1.9e-5 4.74409,0.84776 6.21134,2.543227 1.46724,1.6955 2.23347,3.977881 2.29869,6.847151 -1e-5,2.9345 -0.74994,5.26579 -2.24978,6.993876 -1.49986,1.728092 -3.58661,2.592136 -6.26025,2.592136 l -4.303923,0 0,-18.97639 m 1.858512,17.215694 2.445411,0 c 2.15195,2e-6 3.81483,-0.717318 4.98864,-2.151962 1.17378,-1.434636 1.76068,-3.325752 1.7607,-5.673354 -2e-5,-2.412793 -0.58692,-4.303909 -1.7607,-5.673354 -1.17381,-1.369413 -2.83669,-2.054128 -4.98864,-2.054145 l -2.445411,0 0,15.552815"
         style=""
         id="path3030" />
      <path
         d="m 121.10111,21.056081 -4.30393,4.303923 -1.95633,0 2.9345,-4.303923 3.32576,0 m -5.77117,13.400853 c -0.0652,0.652115 -0.0652,1.271619 0,1.858512 0.13041,1.173801 0.45647,1.988937 0.97816,2.445411 0.52168,0.456479 1.10858,0.684717 1.7607,0.684715 0.6521,2e-6 1.22269,-0.114117 1.71178,-0.342357 0.48908,-0.228237 0.92925,-0.701016 1.32053,-1.418339 l 1.56506,0.978165 c -0.39128,0.652111 -0.91296,1.190101 -1.56506,1.613971 -0.65212,0.423871 -1.46726,0.635807 -2.44541,0.635807 l -1.07599,0 c -1.30422,0 -2.3639,-0.440174 -3.17903,-1.320522 -0.81514,-0.880346 -1.22271,-2.266077 -1.22271,-4.157199 l 0,-1.173797 c 0,-1.825899 0.42387,-3.130117 1.27162,-3.912658 0.84774,-0.78252 1.85851,-1.173786 3.03231,-1.173797 l 1.1738,0 c 1.10857,1.1e-5 2.07043,0.391277 2.88558,1.173797 0.81513,0.782541 1.22269,1.695494 1.22271,2.73886 l 0,1.369431 -7.43405,0 m 5.3799,-1.369431 c -0.0652,-0.717312 -0.29346,-1.30421 -0.68471,-1.760696 -0.39128,-0.456466 -1.04339,-0.684705 -1.95633,-0.684715 -0.97817,10e-6 -1.64658,0.244551 -2.00524,0.733624 -0.35866,0.489091 -0.5706,1.059686 -0.63581,1.711787 l 5.28209,0"
         style=""
         id="path3032" />
      <path
         d="m 135.48012,35.92418 c -0.0652,1.369434 -0.50539,2.54323 -1.32052,3.521392 -0.81515,0.978165 -1.94003,1.467247 -3.37467,1.467247 -1.56506,0 -2.80407,-0.619504 -3.71702,-1.858513 -0.91296,-1.239005 -1.36943,-2.999699 -1.36943,-5.282088 0,-2.412796 0.48908,-4.222398 1.46725,-5.428812 0.97816,-1.206389 2.02153,-1.80959 3.13012,-1.809604 l 1.07598,0 c 1.04337,1.4e-5 1.98893,0.45649 2.83668,1.36943 0.84773,0.912965 1.2716,2.086761 1.27161,3.521392 l -1.85851,0 c -0.13043,-1.173787 -0.45649,-1.988923 -0.97816,-2.445411 -0.5217,-0.456465 -1.1412,-0.684703 -1.85852,-0.684715 -0.97817,1.2e-5 -1.777,0.472791 -2.3965,1.418338 -0.61951,0.945569 -0.92926,2.26609 -0.92926,3.961566 0,1.891123 0.32606,3.260552 0.97817,4.108291 0.6521,0.847744 1.43463,1.271615 2.34759,1.271613 0.71732,2e-6 1.33682,-0.309749 1.85852,-0.929256 0.52167,-0.619501 0.81512,-1.353123 0.88034,-2.20087 l 1.95633,0"
         style=""
         id="path3034" />
      <path
         d="m 141.54475,40.912819 -0.78254,0 c -1.49985,0 -2.24978,-0.749925 -2.24977,-2.249778 l 0,-17.60696 1.85851,0 0,17.60696 c -1e-5,0.326056 0.13042,0.489084 0.39126,0.489082 l 0.78254,0 0,1.760696"
         style=""
         id="path3036" />
      <path
         d="m 145.65303,40.912819 -1.85851,0 0,-14.379017 1.85851,0 0,14.379017 m 0,-16.628796 -1.85851,0 0,-3.227942 1.85851,0 0,3.227942"
         style=""
         id="path3038" />
      <path
         d="m 158.56481,35.92418 c -0.0652,1.369434 -0.5054,2.54323 -1.32053,3.521392 -0.81514,0.978165 -1.94003,1.467247 -3.37466,1.467247 -1.56507,0 -2.80408,-0.619504 -3.71703,-1.858513 -0.91295,-1.239005 -1.36943,-2.999699 -1.36943,-5.282088 0,-2.412796 0.48908,-4.222398 1.46725,-5.428812 0.97816,-1.206389 2.02153,-1.80959 3.13012,-1.809604 l 1.07598,0 c 1.04337,1.4e-5 1.98893,0.45649 2.83668,1.36943 0.84773,0.912965 1.2716,2.086761 1.27162,3.521392 l -1.85852,0 c -0.13043,-1.173787 -0.45648,-1.988923 -0.97816,-2.445411 -0.5217,-0.456465 -1.1412,-0.684703 -1.85851,-0.684715 -0.97817,1.2e-5 -1.77701,0.472791 -2.39651,1.418338 -0.6195,0.945569 -0.92926,2.26609 -0.92925,3.961566 -1e-5,1.891123 0.32605,3.260552 0.97816,4.108291 0.65211,0.847744 1.43464,1.271615 2.3476,1.271613 0.71731,2e-6 1.33681,-0.309749 1.85851,-0.929256 0.52168,-0.619501 0.81513,-1.353123 0.88035,-2.20087 l 1.95633,0"
         style=""
         id="path3040" />
      <path
         d="m 165.60759,28.196681 c -0.84775,1.3e-5 -1.45095,0.195645 -1.80961,0.586899 -0.35866,0.391277 -0.53799,0.847754 -0.53799,1.36943 0,0.586909 0.22824,1.075991 0.68472,1.467247 0.45647,0.391274 0.97816,0.684723 1.56506,0.880348 l 0.68472,0.293449 c 0.84773,0.391273 1.49984,0.766236 1.95633,1.124889 0.45646,0.358667 0.84773,0.798841 1.17379,1.320522 0.32605,0.521693 0.48908,1.141196 0.48909,1.858513 -1e-5,1.23901 -0.35867,2.184568 -1.07599,2.836676 -0.71732,0.65211 -1.7607,0.978165 -3.13012,0.978165 -1.23901,0 -2.26609,-0.35866 -3.08122,-1.075981 -0.81514,-0.717319 -1.28792,-1.825904 -1.41834,-3.325759 l 1.7607,0 c 0.0652,0.912957 0.35865,1.581369 0.88035,2.005237 0.52168,0.423873 1.14118,0.635809 1.85851,0.635807 0.91295,2e-6 1.54875,-0.179328 1.90742,-0.537991 0.35865,-0.358657 0.53798,-0.864042 0.53799,-1.516154 -1e-5,-0.391262 -0.0652,-0.733619 -0.19563,-1.027073 -0.13043,-0.293444 -0.34237,-0.570591 -0.63581,-0.83144 -0.29346,-0.260838 -0.76624,-0.554287 -1.41834,-0.880348 l -0.68471,-0.293449 c -0.65212,-0.260837 -1.22271,-0.521681 -1.71179,-0.782532 -0.48909,-0.260836 -0.92926,-0.652101 -1.32052,-1.173797 -0.39127,-0.521679 -0.5869,-1.173787 -0.5869,-1.956329 0,-1.043364 0.37496,-1.907408 1.12489,-2.592136 0.74992,-0.684701 1.61396,-1.027058 2.59213,-1.027072 l 0.78253,0 c 0.45647,1.4e-5 1.01077,0.195647 1.66288,0.586898 0.6521,0.391279 1.14119,0.880361 1.46725,1.467247 0.32605,0.58691 0.52168,1.336836 0.5869,2.249778 l -1.7607,0 c -0.0652,-0.782521 -0.30976,-1.418327 -0.73362,-1.907421 -0.42388,-0.489069 -0.96187,-0.73361 -1.61397,-0.733623"
         style=""
         id="path3042" />
      <path
         d="m 108.46627,45.97809 -4.08608,11.519712 -1.72202,0 0.51215,-9.975833 -3.659285,9.975833 -1.840779,0 0.701426,-11.519712 1.246979,0 -0.738538,10.213353 3.766917,-10.213353 1.60326,0 -0.51215,10.272732 3.48115,-10.272732 1.24697,0"
         style="font-size:15.20126915px;font-style:italic;fill:#ffffff;-inkscape-font-specification:Ume P Gothic Bold Italic"
         id="path3044" />
      <path
         d="m 109.498,53.578724 c -0.12618,0.831323 -0.073,1.504295 0.15959,2.018919 0.23504,0.514628 0.70513,0.791734 1.41027,0.831319 0.35627,1e-6 0.65689,-0.06927 0.90183,-0.207829 0.24494,-0.138552 0.4503,-0.326589 0.61607,-0.56411 l 1.1876,0 c -0.27711,0.593801 -0.68535,1.049047 -1.22471,1.365739 -0.5369,0.316693 -1.10225,0.47504 -1.69604,0.47504 -0.98967,0 -1.69852,-0.366176 -2.12655,-1.09853 -0.42803,-0.732351 -0.527,-1.672532 -0.2969,-2.820548 l 0.20412,-1.009459 c 0.25979,-1.306353 0.70761,-2.266328 1.34347,-2.879928 0.63833,-0.613584 1.29399,-0.92038 1.96696,-0.920389 l 0.71256,0 c 0.63338,9e-6 1.15543,0.306805 1.56615,0.920389 0.41318,0.6136 0.48988,1.573575 0.2301,2.879928 l -0.20412,1.009459 -4.7504,0 m 3.8263,-1.009459 c 0.23751,-0.98966 0.24122,-1.702219 0.0111,-2.137678 -0.2301,-0.435446 -0.64205,-0.653172 -1.23584,-0.65318 -0.51463,8e-6 -0.99833,0.237527 -1.4511,0.71256 -0.4503,0.475046 -0.76576,1.167811 -0.94637,2.078298 l 3.62218,0"
         style="font-size:15.20126915px;font-style:italic;fill:#ffffff;-inkscape-font-specification:Ume P Gothic Bold Italic"
         id="path3046" />
      <path
         d="m 118.2751,49.481507 c 0.64823,-0.475031 1.17028,-0.71255 1.56615,-0.712559 l 0.71256,0 c 0.51462,9e-6 0.94636,0.267218 1.29522,0.801629 0.34885,0.534427 0.36122,1.613162 0.0371,3.236208 l -0.1299,0.653179 c -0.53937,2.691893 -1.67996,4.037838 -3.42177,4.037838 -0.5938,0 -1.11214,-0.17814 -1.55501,-0.53442 l -0.10763,0.53442 -1.12822,0 2.41232,-12.054132 1.12821,0 -0.80905,4.037837 m -0.22638,1.12822 -1.03173,5.166056 c 0.42803,0.435454 0.93894,0.65318 1.53275,0.653179 1.06883,1e-6 1.80489,-1.009457 2.20819,-3.028377 l 0.11876,-0.5938 c 0.39586,-1.979325 0.099,-2.96899 -0.8907,-2.968998 -0.55422,8e-6 -1.19998,0.257321 -1.93727,0.77194"
         style="font-size:15.20126915px;font-style:italic;fill:#ffffff;-inkscape-font-specification:Ume P Gothic Bold Italic"
         id="path3048" />
      <path
         d="m 128.25094,57.497802 -1.00946,0 0.0965,-0.47504 c -0.49979,0.316693 -1.06637,0.47504 -1.69975,0.47504 -1.90016,0 -2.58056,-1.345945 -2.04119,-4.037838 l 0.11876,-0.593799 c 0.29937,-1.504286 0.7274,-2.563228 1.28409,-3.176828 0.55916,-0.613584 1.17523,-0.92038 1.8482,-0.920389 l 0.53442,0 c 0.51462,9e-6 1.00946,0.197942 1.4845,0.593799 l 0.78679,-3.919077 1.00946,0 -2.41231,12.054132 m -0.66432,-1.722019 1.04286,-5.225436 c -0.49731,-0.475033 -1.00328,-0.712552 -1.5179,-0.71256 -0.67298,8e-6 -1.18389,0.277114 -1.53274,0.831319 -0.34886,0.55422 -0.6136,1.286572 -0.79421,2.197059 l -0.11876,0.593799 c -0.39587,1.979334 0,2.968999 1.1876,2.968998 0.55421,1e-6 1.13192,-0.217725 1.73315,-0.653179"
         style="font-size:15.20126915px;font-style:italic;fill:#ffffff;-inkscape-font-specification:Ume P Gothic Bold Italic"
         id="path3050" />
      <path
         d="m 132.18115,53.578724 c -0.12619,0.831323 -0.073,1.504295 0.15958,2.018919 0.23504,0.514628 0.70513,0.791734 1.41027,0.831319 0.35628,1e-6 0.65689,-0.06927 0.90184,-0.207829 0.24493,-0.138552 0.45029,-0.326589 0.61606,-0.56411 l 1.1876,0 c -0.27711,0.593801 -0.68535,1.049047 -1.22471,1.365739 -0.5369,0.316693 -1.10224,0.47504 -1.69604,0.47504 -0.98967,0 -1.69852,-0.366176 -2.12654,-1.09853 -0.42804,-0.732351 -0.527,-1.672532 -0.2969,-2.820548 l 0.20411,-1.009459 c 0.25979,-1.306353 0.70761,-2.266328 1.34348,-2.879928 0.63833,-0.613584 1.29398,-0.92038 1.96696,-0.920389 l 0.71256,0 c 0.63338,9e-6 1.15543,0.306805 1.56614,0.920389 0.41318,0.6136 0.48988,1.573575 0.2301,2.879928 l -0.20412,1.009459 -4.75039,0 m 3.82629,-1.009459 c 0.23751,-0.98966 0.24123,-1.702219 0.0111,-2.137678 -0.23011,-0.435446 -0.64206,-0.653172 -1.23585,-0.65318 -0.51463,8e-6 -0.99833,0.237527 -1.4511,0.71256 -0.4503,0.475046 -0.76575,1.167811 -0.94637,2.078298 l 3.62218,0"
         style="font-size:15.20126915px;font-style:italic;fill:#ffffff;-inkscape-font-specification:Ume P Gothic Bold Italic"
         id="path3052" />
      <path
         d="m 142.08647,49.778407 c -0.51464,8e-6 -0.90432,0.118768 -1.16905,0.35628 -0.26474,0.237527 -0.42927,0.514633 -0.49359,0.831319 -0.0718,0.356286 0.007,0.653186 0.23752,0.8907 0.23009,0.237525 0.51091,0.415665 0.84245,0.534419 l 0.38226,0.17814 c 0.46514,0.237525 0.81399,0.465148 1.04657,0.68287 0.23504,0.21773 0.41936,0.48494 0.55298,0.801629 0.13607,0.316696 0.16081,0.692769 0.0742,1.128219 -0.15093,0.752148 -0.4837,1.326154 -0.99832,1.722019 -0.51464,0.395867 -1.18761,0.5938 -2.01892,0.5938 -0.75215,0 -1.33234,-0.217727 -1.74058,-0.65318 -0.40824,-0.435452 -0.5604,-1.108424 -0.45648,-2.018918 l 1.06884,0 c -0.0718,0.554215 0.0247,0.959977 0.28947,1.217289 0.26721,0.257314 0.61854,0.38597 1.054,0.385969 0.55421,1e-6 0.96121,-0.108862 1.221,-0.326589 0.26226,-0.217725 0.43297,-0.524521 0.51215,-0.92039 0.047,-0.237517 0.0482,-0.445347 0.004,-0.623489 -0.0421,-0.178137 -0.13732,-0.34638 -0.28576,-0.50473 -0.14598,-0.158343 -0.39711,-0.336483 -0.75339,-0.53442 l -0.37854,-0.178139 c -0.36371,-0.158343 -0.67917,-0.316689 -0.94637,-0.47504 -0.26474,-0.158342 -0.4837,-0.395861 -0.65689,-0.71256 -0.1732,-0.316687 -0.21278,-0.712553 -0.11876,-1.187599 0.12618,-0.633379 0.45772,-1.157901 0.99461,-1.573569 0.53937,-0.415651 1.10595,-0.62348 1.69975,-0.623489 l 0.47504,0 c 0.2771,9e-6 0.59009,0.118768 0.93895,0.35628 0.34885,0.237528 0.58637,0.534427 0.71256,0.890699 0.12617,0.356287 0.15463,0.811533 0.0854,1.365739 l -1.06884,0 c 0.0544,-0.475033 -0.0173,-0.861002 -0.21525,-1.157909 -0.19794,-0.296892 -0.49484,-0.445342 -0.8907,-0.44535"
         style="font-size:15.20126915px;font-style:italic;fill:#ffffff;-inkscape-font-specification:Ume P Gothic Bold Italic"
         id="path3054" />
      <path
         d="m 146.24306,57.497802 -1.12822,0 1.74429,-8.728854 1.12822,0 -1.74429,8.728854 m 2.01892,-10.094593 -1.12822,0 0.3934,-1.959539 1.12821,0 -0.39339,1.959539"
         style="font-size:15.20126915px;font-style:italic;fill:#ffffff;-inkscape-font-specification:Ume P Gothic Bold Italic"
         id="path3056" />
      <path
         d="m 148.2026,58.091601 c 0.66555,0.237519 1.28533,0.356279 1.85934,0.35628 0.574,-1e-6 1.04038,-0.158347 1.39914,-0.47504 0.36122,-0.316693 0.5975,-0.752146 0.70884,-1.306359 -0.58638,0.35628 -1.11708,0.53442 -1.59212,0.53442 -1.58347,0 -2.13026,-1.227184 -1.64037,-3.681558 l 0.17814,-0.890699 c 0.287,-1.425113 0.67544,-2.424674 1.16533,-2.998688 0.48988,-0.573998 0.99214,-0.861 1.50677,-0.861009 l 0.65318,0 c 0.39586,9e-6 0.79667,0.178148 1.20244,0.534419 l 0.10391,-0.534419 1.06884,0 -1.46965,7.363115 c -0.25485,1.266772 -0.67298,2.167367 -1.2544,2.701788 -0.58143,0.534417 -1.26802,0.801627 -2.05974,0.801629 -0.75215,-2e-6 -1.44863,-0.07917 -2.08944,-0.23752 l 0.25979,-1.306359 m 1.80367,-4.572257 c -0.34639,1.741815 -0.0841,2.61272 0.78678,2.612719 0.47504,10e-7 1.00946,-0.197932 1.60326,-0.5938 l 1.03173,-5.166056 c -0.44288,-0.356273 -0.90184,-0.534412 -1.37688,-0.53442 -0.87091,8e-6 -1.49316,0.930293 -1.86675,2.790858 l -0.17814,0.890699"
         style="font-size:15.20126915px;font-style:italic;fill:#ffffff;-inkscape-font-specification:Ume P Gothic Bold Italic"
         id="path3058" />
      <path
         d="m 160.67239,57.497802 -1.06884,0 1.32863,-6.650556 c 0.0965,-0.475032 0.047,-0.771932 -0.14845,-0.890699 -0.19299,-0.118752 -0.46762,-0.178132 -0.8239,-0.17814 -0.43545,8e-6 -0.8239,0.108871 -1.16533,0.32659 -0.33896,0.217734 -0.66308,0.504736 -0.97235,0.861009 l -1.30635,6.531796 -1.06884,0 1.74428,-8.728854 1.06884,0 -0.20041,1.009459 c 0.20536,-0.237512 0.41071,-0.425548 0.61607,-0.564109 0.20783,-0.138545 0.40823,-0.247408 0.60122,-0.32659 0.19298,-0.07917 0.46762,-0.118751 0.8239,-0.11876 l 0.65318,0 c 0.43545,9e-6 0.78925,0.158355 1.06142,0.475039 0.27462,0.316702 0.35256,0.771947 0.23381,1.36574 l -1.37688,6.888075"
         style="font-size:15.20126915px;font-style:italic;fill:#ffffff;-inkscape-font-specification:Ume P Gothic Bold Italic"
         id="path3060" />
    </g>
  </g>
</svg>
